<?xml version="1.0" standalone="no"?>
<!DOCTYPE svg PUBLIC "-//W3C//DTD SVG 20010904//EN"
 "http://www.w3.org/TR/2001/REC-SVG-20010904/DTD/svg10.dtd">
<svg version="1.0" xmlns="http://www.w3.org/2000/svg"
 width="850.000000pt" height="567.000000pt" viewBox="0 0 850.000000 567.000000"
 preserveAspectRatio="xMidYMid meet">

<g transform="translate(0.000000,567.000000) scale(0.100000,-0.100000)"
fill="#000000" stroke="none">
<path d="M0 5388 c1 -304 -1 -296 45 -203 8 17 19 37 24 45 4 8 19 39 32 67
13 29 27 53 32 53 4 0 7 18 7 40 0 22 5 40 10 40 6 0 10 10 10 23 0 12 7 30
15 40 7 11 17 36 20 58 4 21 10 39 14 39 10 0 31 46 31 65 0 12 -22 15 -120
15 l-120 0 0 -282z"/>
<path d="M8480 4461 c0 -10 -49 -32 -82 -35 -13 -2 -33 -8 -45 -14 -12 -7 -42
-12 -68 -12 -25 0 -44 -3 -42 -7 3 -5 -19 -7 -49 -6 -50 2 -57 -1 -89 -34 -32
-33 -38 -35 -80 -31 -42 5 -48 3 -78 -28 -25 -27 -39 -34 -69 -34 -27 0 -38
-4 -38 -15 0 -11 -11 -15 -40 -15 -39 0 -40 -1 -40 -35 0 -34 -1 -35 -40 -35
-22 0 -40 -5 -40 -11 0 -7 17 -9 53 -4 49 7 51 6 32 -10 -19 -15 -16 -16 45
-10 36 3 100 11 143 17 43 6 95 8 117 5 33 -4 41 -1 58 22 10 15 40 42 65 61
25 19 51 47 57 62 22 49 50 65 148 82 50 9 94 16 97 16 3 0 5 18 5 40 0 22 -4
40 -10 40 -5 0 -10 -4 -10 -9z m-133 -77 c-3 -3 -12 -4 -19 -1 -8 3 -5 6 6 6
11 1 17 -2 13 -5z"/>
<path d="M8411 4239 c-30 -16 -59 -29 -66 -29 -6 0 -27 -13 -46 -29 -72 -63
-97 -81 -112 -81 -22 0 -32 -21 -16 -31 19 -12 116 -11 124 1 3 6 11 10 16 10
6 0 8 -4 5 -8 -3 -5 18 -14 46 -21 45 -10 54 -9 67 4 15 15 13 16 -20 10 -23
-4 -39 -3 -43 4 -4 6 -3 11 3 11 6 0 35 20 65 44 30 25 57 42 60 39 3 -4 6 8
6 26 0 24 -4 32 -13 28 -10 -4 -13 3 -12 24 1 16 -1 29 -4 28 -3 0 -30 -13
-60 -30z"/>
<path d="M8489 4143 c-1 -5 -1 -11 0 -15 0 -5 -3 -8 -9 -8 -5 0 -10 -4 -10
-10 0 -5 7 -10 15 -10 9 0 15 9 15 25 0 23 -8 36 -11 18z"/>
<path d="M7680 4110 c0 -13 20 -13 40 0 12 8 9 10 -12 10 -16 0 -28 -4 -28
-10z"/>
<path d="M8480 4080 c0 -5 5 -10 10 -10 6 0 10 5 10 10 0 6 -4 10 -10 10 -5 0
-10 -4 -10 -10z"/>
<path d="M7703 4064 c-18 -8 -33 -21 -33 -29 0 -10 -11 -15 -35 -15 -37 0 -45
-15 -22 -39 10 -11 10 -14 0 -18 -7 -3 -13 -12 -13 -21 0 -10 3 -13 8 -7 19
27 75 55 118 60 30 3 55 13 64 24 8 10 29 26 45 34 l30 16 -45 1 c-25 0 -54 2
-65 5 -11 2 -35 -3 -52 -11z"/>
<path d="M8458 4033 c7 -3 16 -2 19 1 4 3 -2 6 -13 5 -11 0 -14 -3 -6 -6z"/>
<path d="M8420 4001 c0 -5 10 -11 23 -14 12 -2 30 -8 40 -12 13 -5 17 -2 17
14 0 18 -6 21 -40 21 -22 0 -40 -4 -40 -9z"/>
<path d="M5893 3957 c35 -30 37 -36 37 -88 0 -43 5 -60 20 -74 11 -10 20 -26
20 -35 0 -9 4 -20 9 -25 5 -6 11 -23 13 -40 l3 -30 25 42 c17 29 37 48 63 58
38 15 39 16 32 58 -4 23 -12 59 -17 80 -11 38 -20 42 -93 40 -11 0 -22 3 -25
6 -3 4 -32 15 -65 24 l-60 16 38 -32z"/>
<path d="M7575 3920 c-3 -5 1 -10 10 -10 9 0 13 5 10 10 -3 6 -8 10 -10 10 -2
0 -7 -4 -10 -10z"/>
<path d="M8235 3900 c3 -6 -1 -13 -9 -16 -9 -3 -16 -12 -16 -20 0 -23 14 -16
32 16 15 26 15 30 2 30 -8 0 -12 -5 -9 -10z"/>
<path d="M8440 3894 c-16 -8 -19 -14 -9 -14 8 0 24 7 35 15 24 18 7 18 -26 -1z"/>
<path d="M7660 3865 c-8 -9 -8 -15 -2 -15 12 0 26 19 19 26 -2 2 -10 -2 -17
-11z"/>
<path d="M8470 3851 c-15 -10 -21 -11 -16 -3 6 11 0 12 -31 6 -47 -8 -55 -13
-47 -25 3 -5 0 -17 -8 -26 -11 -15 -11 -16 7 -10 20 7 20 7 1 -8 -18 -13 -15
-19 6 -16 4 0 12 -8 17 -18 9 -17 7 -18 -31 -11 -43 8 -68 4 -68 -11 0 -5 -7
-9 -16 -9 -8 0 -12 5 -8 11 3 6 -8 4 -24 -5 -17 -9 -46 -16 -64 -16 -24 0 -29
-3 -18 -10 12 -7 10 -11 -10 -20 -14 -6 -36 -17 -50 -25 -14 -8 -42 -18 -62
-21 -27 -5 -43 -15 -60 -40 -20 -30 -28 -34 -69 -34 -33 0 -51 6 -64 20 -10
11 -28 20 -39 20 -19 -1 -18 -3 9 -25 17 -14 38 -25 48 -25 21 0 22 -16 1 -24
-9 -3 -53 -6 -99 -6 l-84 0 -27 -35 c-15 -20 -33 -34 -40 -31 -16 6 -34 -23
-34 -53 0 -12 -6 -21 -14 -21 -8 0 -25 -13 -38 -29 -13 -15 -37 -33 -54 -40
-29 -11 -29 -11 9 -7 37 5 52 -9 20 -17 -15 -4 -15 -5 2 -6 17 -1 18 -3 5 -11
-12 -8 -10 -10 10 -11 14 -1 30 -1 37 0 6 1 14 -3 18 -9 3 -5 21 -10 38 -11
31 0 32 0 7 -10 -14 -6 -43 -12 -65 -14 -22 -2 -74 -6 -115 -10 -41 -4 -84
-12 -95 -19 -11 -7 -36 -15 -55 -19 -19 -3 -44 -9 -54 -13 -14 -5 -17 -4 -12
5 5 7 18 16 30 21 l21 9 -22 0 c-12 1 -25 -3 -28 -9 -3 -5 -14 -10 -24 -10
-25 0 -47 -26 -29 -33 8 -3 6 -6 -6 -6 -11 -1 -16 -6 -13 -15 3 -8 -1 -22 -8
-33 -13 -16 -14 -16 -15 -1 0 9 6 19 13 21 7 4 6 6 -4 6 -9 1 -22 -6 -29 -14
-7 -8 -16 -13 -20 -10 -5 3 -11 1 -15 -5 -3 -5 -16 -10 -28 -10 -13 0 -30 -9
-40 -20 -10 -12 -23 -18 -29 -14 -6 4 -8 3 -4 -4 7 -11 -9 -25 -33 -28 -7 -2
-23 -12 -35 -23 -12 -12 -28 -21 -34 -21 -7 0 -12 -4 -12 -9 0 -5 -14 -14 -32
-20 -17 -6 -39 -18 -49 -27 -9 -8 -25 -17 -33 -18 -30 -4 -19 -21 30 -46 27
-14 51 -28 52 -32 2 -5 8 -8 14 -8 5 0 28 -15 51 -33 23 -19 62 -45 87 -59 45
-26 46 -26 70 -7 14 10 28 19 31 19 4 0 19 11 35 25 16 13 76 64 134 113 58
49 134 117 170 151 107 101 306 224 458 282 12 5 22 13 22 19 0 5 11 10 24 10
14 0 37 5 53 12 22 9 24 12 10 15 -9 3 -15 8 -12 13 3 5 13 6 23 3 14 -6 15
-4 5 9 -7 8 -10 18 -6 21 13 14 23 6 23 -18 0 -14 4 -25 8 -25 4 0 79 24 167
54 142 47 162 56 174 82 8 16 15 42 16 59 1 16 5 38 9 47 4 9 5 22 1 27 -3 6
-1 19 5 30 6 12 6 22 1 25 -5 4 -12 0 -15 -6 -3 -7 -4 -4 -3 7 2 11 8 19 14
18 7 -2 30 -5 52 -9 41 -6 41 -6 41 25 0 28 -3 31 -32 31 -30 0 -31 0 -13 20
10 11 24 20 32 20 7 0 13 9 13 20 0 24 -16 26 -36 5 -9 -8 -21 -15 -27 -15 -7
0 6 16 28 34 43 36 46 55 5 27z m-123 -146 c-4 -8 -17 -15 -29 -15 -22 -1 -22
-1 -4 -15 20 -15 16 -45 -7 -45 -7 0 -29 -9 -50 -19 -28 -14 -37 -16 -37 -6 0
8 9 17 20 20 11 3 20 11 20 16 0 6 9 7 20 4 15 -5 20 -2 20 10 0 13 -6 16 -25
11 -19 -5 -25 -2 -25 9 0 10 -5 13 -12 9 -7 -4 -8 -3 -4 4 4 7 19 12 34 12 15
1 38 7 52 15 28 15 35 13 27 -10z m-132 -75 c-3 -5 -17 -10 -31 -10 -14 0 -22
4 -19 10 3 6 17 10 31 10 14 0 22 -4 19 -10z m-119 -19 c-10 -11 -31 -23 -48
-26 -16 -4 -27 -12 -25 -18 5 -16 -42 -47 -70 -47 -14 0 -23 6 -23 15 0 9 9
15 24 15 14 0 28 5 32 11 3 6 26 20 50 31 24 10 44 23 44 28 0 6 7 10 17 10
15 0 14 -2 -1 -19z m29 -21 c-3 -5 -14 -10 -23 -10 -15 0 -15 2 -2 10 20 13
33 13 25 0z m185 -40 c0 -12 -40 -34 -47 -26 -9 8 17 36 33 36 8 0 14 -4 14
-10z m-1185 -770 c3 -5 -1 -10 -10 -10 -9 0 -13 5 -10 10 3 6 8 10 10 10 2 0
7 -4 10 -10z"/>
<path d="M8112 3821 c-20 -12 76 -41 160 -48 48 -4 68 -2 68 6 0 6 -9 11 -20
11 -11 0 -37 9 -57 20 -39 21 -126 27 -151 11z"/>
<path d="M5860 3753 c-8 -3 -18 -11 -22 -17 -5 -8 -8 -7 -8 2 0 6 -5 12 -11
12 -13 0 -8 -46 16 -129 17 -61 13 -75 -19 -67 -15 4 -30 -1 -43 -14 -18 -16
-23 -17 -33 -5 -10 13 -16 12 -41 -1 -33 -16 -39 -50 -13 -69 14 -10 14 -15 4
-32 -7 -11 -10 -28 -7 -37 8 -20 51 -21 71 -1 8 8 24 15 35 15 11 0 23 4 26
10 8 13 66 5 76 -11 12 -19 11 -103 -1 -115 -6 -6 1 -14 20 -21 24 -9 30 -9
30 3 0 14 11 17 83 29 20 3 37 10 37 15 0 5 9 12 21 15 15 5 18 10 10 18 -17
17 -13 30 8 24 11 -3 22 1 25 8 6 16 114 18 133 3 9 -7 3 -24 -22 -66 -32 -55
-42 -62 -107 -76 -20 -5 -28 -13 -28 -29 0 -35 -15 -49 -66 -62 l-49 -13 -17
40 c-18 39 -53 77 -73 77 -5 0 -18 -11 -28 -25 -19 -25 -15 -63 6 -65 7 -1 1
-4 -13 -9 -23 -7 -24 -8 -5 -14 53 -20 65 -27 65 -40 0 -11 -6 -12 -34 -4 -37
12 -110 3 -101 -13 4 -5 -1 -9 -9 -9 -9 0 -25 -9 -36 -20 -18 -18 -21 -19 -27
-4 -4 11 8 28 38 55 39 33 41 38 22 39 -13 0 -23 -5 -23 -11 0 -6 -6 -9 -12
-7 -7 3 -21 -3 -31 -13 -11 -10 -25 -15 -32 -13 -8 4 -15 -3 -17 -18 -2 -18
-10 -24 -33 -25 l-30 -2 27 12 c31 14 25 31 -11 33 -27 2 -51 -17 -51 -39 0
-8 -9 -13 -22 -12 -18 2 -22 8 -20 25 2 21 -1 22 -47 18 -53 -5 -122 -36 -129
-58 -5 -13 10 -12 52 6 14 5 17 4 11 -5 -6 -10 -3 -11 15 -1 25 13 25 13 34
-20 6 -18 5 -21 -3 -10 -13 19 -23 9 -11 -10 7 -11 34 -16 107 -18 54 -1 113
-3 131 -3 36 -1 56 -19 20 -19 -21 -1 -21 -3 12 -30 19 -16 30 -30 25 -30 -6
0 -26 13 -45 30 -20 16 -46 29 -60 29 l-25 -1 25 -8 c22 -7 20 -8 -15 -9 -22
-1 -67 -12 -100 -26 -61 -25 -95 -31 -95 -17 0 4 14 22 31 40 17 18 30 34 28
36 -14 8 -143 45 -147 42 -10 -11 28 -36 45 -30 15 5 15 3 -3 -13 -12 -11 -33
-43 -47 -73 l-26 -54 68 -21 c38 -12 94 -36 126 -53 50 -27 61 -30 74 -19 28
24 74 37 137 39 66 2 119 -14 148 -46 61 -66 69 -76 65 -76 -3 0 -26 20 -52
44 -45 44 -95 66 -147 66 -49 0 -150 -34 -150 -50 0 -4 10 -12 23 -18 14 -7
17 -11 6 -11 -8 -1 -19 3 -25 8 -23 22 -108 62 -121 57 -8 -3 -11 -1 -8 4 7
12 -83 53 -100 46 -12 -4 -35 -78 -35 -109 0 -8 23 -23 53 -35 28 -11 68 -26
87 -33 43 -17 257 -146 267 -161 4 -8 0 -9 -13 -4 -10 5 -40 14 -67 21 -26 7
-64 23 -85 35 -20 12 -46 24 -57 26 -46 8 -81 17 -90 24 -5 5 -26 10 -45 12
-31 3 -35 0 -38 -22 -6 -55 -13 -72 -27 -66 -19 7 -20 -18 -1 -33 15 -13 213
-51 361 -71 50 -6 127 -18 173 -26 118 -22 121 -20 119 74 l-2 77 -45 22 c-61
31 -93 27 -102 -12 -5 -22 -6 -17 -5 20 2 45 5 51 33 65 32 15 30 29 -6 42
-12 5 -12 7 2 13 12 5 28 -2 49 -19 17 -14 43 -29 57 -32 37 -9 51 -22 68 -62
17 -41 18 -88 3 -98 -14 -8 -3 -53 19 -78 29 -31 69 -46 133 -48 41 -1 63 3
69 12 7 11 11 10 25 -3 9 -9 26 -19 38 -22 27 -5 211 -20 499 -40 240 -16
1048 -32 1091 -21 39 10 35 40 -9 61 -20 9 -44 15 -55 12 -10 -3 -22 -1 -25 5
-3 5 -13 7 -21 4 -9 -4 -22 -1 -29 5 -10 8 -14 8 -14 0 0 -6 -5 -11 -10 -11
-13 0 -4 59 15 105 19 46 72 61 170 46 119 -17 130 -14 60 24 -45 24 -103 80
-107 103 -3 19 65 59 70 42 2 -6 11 -10 20 -10 10 0 38 -11 63 -25 26 -13 49
-21 52 -18 4 3 18 -2 33 -11 18 -12 24 -24 21 -37 -3 -12 2 -23 14 -29 33 -18
23 -47 -23 -69 -64 -29 -93 -60 -118 -124 -17 -44 -20 -61 -11 -70 12 -12 186
-13 414 -1 l117 7 0 167 0 168 -27 5 c-16 3 -49 2 -74 -2 -54 -9 -116 -6 -174
8 -22 5 -66 15 -97 21 -53 11 -57 13 -45 31 7 11 36 26 67 35 30 8 77 22 104
30 63 20 81 23 139 26 26 0 50 5 53 10 3 4 16 8 30 8 l24 0 0 300 c0 222 -3
300 -12 300 -18 0 -241 -61 -260 -71 -10 -5 -70 -23 -135 -40 -65 -17 -122
-34 -128 -39 -5 -4 -24 -11 -42 -15 -59 -12 -130 -53 -167 -96 -46 -55 -48
-72 -6 -49 11 6 17 17 14 25 -4 8 -2 15 3 15 6 0 22 11 38 26 15 14 30 22 34
18 3 -4 0 -9 -6 -11 -15 -5 -17 -43 -3 -43 6 0 10 -9 10 -20 0 -16 3 -18 18
-10 33 19 123 50 117 40 -5 -8 -71 -49 -158 -97 -27 -15 -97 -93 -97 -108 1
-5 8 -1 18 11 10 11 23 19 30 16 6 -2 12 1 12 6 0 13 31 20 55 12 16 -6 15 -8
-13 -18 -43 -15 -128 -105 -143 -151 -6 -20 -23 -49 -38 -66 -15 -16 -36 -48
-47 -69 -10 -22 -34 -53 -52 -69 -18 -16 -40 -42 -48 -57 -18 -30 -71 -66 -82
-55 -3 3 -2 9 4 13 5 4 25 27 44 52 19 25 42 53 52 63 18 18 26 53 9 42 -5 -3
-13 4 -16 16 -7 22 11 43 29 32 5 -3 6 -1 2 6 -4 6 -1 22 7 34 27 43 59 185
37 172 -16 -10 -12 19 9 68 11 26 28 48 40 52 20 6 81 72 81 86 0 4 -19 -3
-43 -15 -68 -37 -87 -50 -87 -62 0 -7 -9 -14 -20 -17 -11 -3 -20 -14 -20 -24
0 -24 -37 -28 -42 -5 -2 11 -12 0 -27 -30 -26 -55 -41 -68 -41 -39 0 12 -4 21
-8 21 -13 0 -72 -64 -72 -78 0 -16 -17 -15 -23 1 -3 7 -6 5 -6 -6 -1 -9 -4
-16 -8 -15 -5 2 -32 -13 -62 -32 -29 -19 -57 -35 -62 -35 -5 0 -22 -15 -38
-32 -17 -18 -36 -33 -43 -33 -7 0 -24 -9 -37 -19 l-24 -19 36 -13 c21 -7 37
-16 37 -20 0 -12 -64 13 -73 28 -4 7 -18 13 -31 13 -13 0 -29 7 -36 15 -7 8
-17 15 -23 15 -5 0 -28 15 -51 33 -23 19 -66 47 -96 62 -30 16 -71 41 -90 56
-40 30 -80 45 -80 31 0 -6 6 -12 13 -15 7 -3 5 -8 -8 -13 -11 -4 -30 -18 -42
-31 -13 -13 -34 -23 -50 -23 -31 0 -61 -15 -51 -25 3 -4 15 -1 27 6 30 20 40
0 11 -22 -39 -30 -120 -111 -120 -120 0 -4 -16 -35 -35 -68 -19 -32 -35 -68
-35 -80 0 -11 -5 -23 -10 -26 -6 -4 -8 -11 -5 -16 4 -5 -1 -12 -9 -15 -9 -3
-16 -13 -16 -21 0 -20 -48 -65 -61 -58 -15 10 -10 27 17 51 14 13 20 24 15 24
-6 0 -11 5 -11 10 0 6 7 10 16 10 10 0 14 6 10 15 -3 8 -1 15 4 15 6 0 10 4
10 9 0 9 33 81 56 121 13 23 12 27 -6 42 -27 22 -25 30 5 22 19 -5 25 -2 25
11 0 10 5 15 14 12 16 -6 36 11 36 31 0 12 -2 12 -17 1 -13 -11 -17 -11 -20
-1 -3 6 -9 10 -14 6 -5 -3 -9 0 -9 5 0 6 8 11 18 11 18 0 42 23 62 60 16 30 1
40 -17 13 -12 -17 -25 -23 -54 -23 -44 0 -53 17 -11 22 16 2 26 8 24 16 -1 8
2 11 7 8 5 -3 20 5 32 19 13 13 29 25 34 25 6 0 23 7 39 15 16 9 31 13 34 10
3 -2 19 4 36 14 17 10 47 19 66 19 33 1 34 0 16 -14 -42 -31 23 -35 89 -5 119
53 157 75 191 110 42 44 89 115 61 92 -9 -7 -17 -11 -17 -8 0 3 -34 -6 -75
-18 -42 -13 -77 -19 -80 -14 -10 16 -33 10 -57 -15 -13 -12 -43 -31 -68 -40
-24 -10 -65 -33 -91 -52 -48 -35 -145 -84 -166 -84 -7 0 -13 7 -13 15 0 8 8
15 18 15 9 0 35 9 57 20 22 11 31 17 20 14 -11 -4 -35 -9 -52 -12 -32 -4 -33
-4 -33 35 0 29 -4 40 -15 40 -8 0 -15 -4 -15 -8 0 -5 -13 0 -30 9 -25 14 -27
18 -12 24 17 7 6 9 -53 13 -26 1 -47 14 -40 24 2 5 -14 14 -37 20 -31 10 -38
15 -27 22 12 7 11 9 -2 9 -9 0 -28 -9 -42 -20 -32 -26 -35 -25 -29 5 2 14 14
32 26 41 20 14 18 14 -21 8 -45 -7 -61 9 -20 20 57 15 78 7 131 -50 66 -70 75
-71 279 -22 l38 9 -23 20 -23 20 25 -6 c14 -4 32 -9 42 -11 18 -5 82 29 72 39
-3 3 -1 14 5 25 8 15 7 23 -7 35 -34 30 -106 59 -159 64 l-54 6 35 -69 c20
-37 33 -70 31 -73 -3 -2 -23 2 -46 9 -37 13 -43 12 -54 -3 -14 -19 -35 -23
-35 -6 0 5 -4 7 -10 4 -16 -10 -12 31 5 45 19 16 10 30 -15 23 -24 -6 -27 18
-5 37 8 7 15 20 15 30 0 10 7 23 15 30 8 7 15 18 15 26 0 11 -7 10 -41 -1 -23
-8 -43 -15 -46 -15 -10 0 11 127 24 148 15 25 14 63 -2 63 -5 0 -13 -10 -17
-23 l-6 -23 -1 24 c-2 42 -52 102 -106 128 -65 30 -73 29 -70 -7 2 -29 40 -79
60 -80 6 0 17 -9 25 -21 40 -57 39 -56 40 -24 1 26 3 27 10 10 12 -28 12 -83
0 -90 -6 -4 -10 6 -10 21 0 26 -1 27 -14 9 -12 -16 -16 -17 -30 -6 -11 9 -16
10 -16 2 0 -21 -18 -11 -70 39 -29 28 -55 50 -59 50 -3 0 -11 10 -16 23 -6 12
-20 23 -31 25 -18 3 -23 -4 -28 -33 -4 -20 -2 -61 4 -91 9 -41 9 -63 -1 -91
-6 -21 -12 -50 -11 -65 0 -15 -3 -28 -8 -28 -14 0 -17 32 -7 78 13 65 -15 227
-45 259 -13 14 -22 26 -21 29 2 3 -37 75 -40 73 -1 0 -9 -3 -17 -6z m192 -200
c-14 -5 13 -28 60 -52 14 -7 28 -21 31 -31 4 -14 -3 -19 -28 -22 -40 -5 -55 0
-55 16 0 7 -9 21 -21 32 -11 10 -18 26 -16 35 2 9 0 24 -5 33 -16 28 2 40 26
16 15 -16 17 -24 8 -27z m151 -100 c-7 -2 -21 -2 -30 0 -10 3 -4 5 12 5 17 0
24 -2 18 -5z m-90 -28 c9 -2 17 0 17 6 0 5 7 9 15 9 12 0 10 -6 -7 -23 -13
-13 -25 -20 -26 -15 -2 4 -7 6 -12 3 -12 -7 -70 15 -70 27 0 7 12 8 33 4 17
-4 40 -9 50 -11z m1974 -187 c-3 -8 -6 -5 -6 6 -1 11 2 17 5 13 3 -3 4 -12 1
-19z m-1744 -42 c10 -22 16 -49 13 -62 l-6 -22 -39 19 c-47 22 -59 50 -36 85
22 34 46 27 68 -20z m1555 -28 c-6 -16 -36 -34 -44 -26 -3 4 -4 14 -1 23 7 17
51 21 45 3z m122 -23 c-13 -14 -25 -23 -27 -21 -5 5 40 53 46 49 3 -2 -6 -14
-19 -28z m-2056 -40 c-7 -16 -24 -21 -24 -6 0 8 7 13 27 20 1 1 0 -6 -3 -14z
m136 -5 c0 -5 7 -10 16 -10 8 0 12 -5 9 -10 -4 -6 -11 -7 -17 -4 -6 4 -24 7
-39 6 -29 -1 -39 12 -16 21 21 9 47 7 47 -3z m2060 -18 c0 -4 -9 -13 -20 -20
-23 -14 -26 -8 -7 13 13 16 27 19 27 7z m-119 -65 c-1 -12 -15 -9 -19 4 -3 6
1 10 8 8 6 -3 11 -8 11 -12z m-2331 -7 c0 -5 -7 -7 -15 -4 -8 4 -15 8 -15 10
0 2 7 4 15 4 8 0 15 -4 15 -10z m530 -56 c0 -22 -2 -24 -14 -14 -8 6 -12 18
-9 26 9 23 23 16 23 -12z m-810 6 c-8 -5 -19 -10 -25 -10 -5 0 -3 5 5 10 8 5
20 10 25 10 6 0 3 -5 -5 -10z m1290 6 c0 -2 -7 -6 -15 -10 -8 -3 -15 -1 -15 4
0 6 7 10 15 10 8 0 15 -2 15 -4z m-770 -37 c17 -13 18 -17 5 -10 -33 17 -51
31 -40 31 6 0 21 -10 35 -21z m1560 11 c0 -5 -2 -10 -4 -10 -3 0 -8 5 -11 10
-3 6 -1 10 4 10 6 0 11 -4 11 -10z m-1581 -30 c32 -16 63 -50 45 -50 -9 0
-124 60 -124 65 0 12 44 3 79 -15z m-529 -26 c0 -10 -6 -14 -15 -10 -10 4 -15
-1 -16 -17 0 -21 -1 -21 -9 -2 -15 34 -11 45 15 45 16 0 25 -6 25 -16z m794
-5 c14 -11 26 -25 26 -31 0 -5 -13 1 -30 15 -20 17 -37 23 -51 20 -15 -4 -20
-3 -15 5 11 18 40 14 70 -9z m-237 -27 c24 -15 43 -32 43 -37 0 -6 14 -27 31
-48 17 -20 26 -37 21 -37 -6 0 -21 13 -35 29 -13 16 -43 41 -66 55 -23 15 -39
31 -36 35 2 5 -6 11 -20 13 -13 3 -22 1 -19 -4 3 -5 -7 -6 -23 -2 -37 9 -41
14 -12 15 23 0 23 1 4 10 -14 7 -8 8 25 4 24 -3 64 -18 87 -33z m463 -72 c0
-5 -4 -10 -9 -10 -6 0 -13 5 -16 10 -3 6 1 10 9 10 9 0 16 -4 16 -10z m-69
-48 c14 -9 24 -23 21 -30 -3 -10 -8 -9 -23 4 -10 9 -19 14 -19 10 0 -4 -9 -2
-20 4 -21 11 -19 30 3 30 7 0 24 -8 38 -18z m-266 -32 c4 -6 -6 -10 -22 -10
-22 0 -25 2 -13 10 19 12 27 12 35 0z m1406 -17 c-8 -15 -10 -15 -11 -2 0 17
10 32 18 25 2 -3 -1 -13 -7 -23z m530 -6 c-7 -7 -14 -8 -21 -1 -6 6 -2 10 12
11 16 2 18 -1 9 -10z m-1681 -37 c0 -5 -4 -10 -10 -10 -5 0 -10 5 -10 10 0 6
5 10 10 10 6 0 10 -4 10 -10z m-66 -46 c16 -6 22 -33 9 -35 -31 -6 -93 -4 -93
3 0 4 9 8 20 8 27 0 25 18 -2 23 -15 3 -10 5 14 6 20 0 43 -2 52 -5z m926
-124 c12 -8 11 -10 -7 -10 -13 0 -23 5 -23 10 0 13 11 13 30 0z m120 -25 c17
-9 30 -23 30 -32 0 -14 -4 -13 -23 5 -13 12 -31 22 -41 22 -9 0 -14 5 -11 10
8 13 11 13 45 -5z"/>
<path d="M5920 2845 c0 -2 10 -10 23 -16 20 -11 21 -11 8 4 -13 16 -31 23 -31
12z"/>
<path d="M6240 2576 c0 -2 7 -7 16 -10 8 -3 12 -2 9 4 -6 10 -25 14 -25 6z"/>
<path d="M8078 3707 c-16 -13 -28 -28 -28 -35 0 -7 -5 -12 -12 -12 -6 0 -8 -3
-5 -6 4 -4 13 -1 22 6 8 7 25 14 38 15 36 4 37 4 37 16 0 6 -7 8 -16 5 -9 -3
-12 -2 -8 5 3 6 16 14 28 19 20 8 20 9 -4 9 -14 0 -37 -10 -52 -22z"/>
<path d="M7736 3694 c-15 -9 -37 -14 -47 -11 -10 3 -19 1 -19 -4 0 -15 44 -21
73 -10 15 6 27 17 27 26 0 18 2 18 -34 -1z"/>
<path d="M7770 3656 c0 -8 5 -18 10 -21 6 -3 10 1 10 9 0 8 -4 18 -10 21 -5 3
-10 -1 -10 -9z"/>
<path d="M7440 3600 c0 -7 -8 -9 -20 -5 -15 5 -21 0 -26 -19 -3 -14 -12 -26
-20 -26 -23 0 -16 -13 31 -59 l45 -44 -30 -18 c-17 -10 -30 -23 -30 -29 0 -13
17 -13 22 0 2 5 20 12 40 14 37 5 37 5 31 -28 -6 -35 11 -56 29 -38 8 8 6 23
-6 52 -20 50 -21 80 -1 80 9 0 12 6 8 16 -4 12 5 26 28 46 19 16 28 27 22 23
-7 -3 -23 3 -35 14 -12 12 -27 21 -32 21 -6 0 -21 3 -33 6 -15 4 -23 2 -23 -6z"/>
<path d="M7546 3513 c-6 -14 -5 -15 5 -6 7 7 10 15 7 18 -3 3 -9 -2 -12 -12z"/>
<path d="M7575 3509 c-4 -6 -5 -12 -2 -15 2 -3 7 2 10 11 7 17 1 20 -8 4z"/>
<path d="M7040 3465 c-8 -9 -22 -14 -33 -11 -13 3 -39 -8 -73 -32 -43 -29 -54
-43 -54 -64 0 -17 7 -31 21 -38 13 -7 19 -19 17 -33 -3 -19 1 -22 31 -20 20 1
52 14 77 32 33 23 45 27 51 17 9 -15 89 -28 121 -19 25 6 30 38 7 47 -16 6
-20 41 -6 50 5 4 11 0 14 -6 3 -9 7 -6 13 6 5 13 3 21 -4 24 -7 2 -10 7 -7 12
6 9 -67 37 -120 46 -32 4 -44 2 -55 -11z m38 -77 c19 -19 14 -37 -13 -44 -34
-8 -41 0 -27 31 13 28 22 31 40 13z"/>
<path d="M6728 3344 c-16 -8 -28 -19 -28 -24 0 -20 24 -9 49 23 16 20 14 21
-21 1z"/>
<path d="M5556 3274 c-4 -14 -5 -28 -3 -31 3 -2 8 8 11 23 4 14 5 28 3 31 -3
2 -8 -8 -11 -23z"/>
<path d="M7301 3273 c0 -6 -4 -20 -7 -30 -5 -14 -4 -15 5 -7 7 7 11 20 8 30
-3 11 -5 14 -6 7z"/>
<path d="M7437 3233 c-3 -5 16 -7 41 -5 73 5 82 10 20 11 -31 0 -59 -2 -61 -6z"/>
<path d="M7205 3200 c-3 -5 -1 -10 4 -10 6 0 11 5 11 10 0 6 -2 10 -4 10 -3 0
-8 -4 -11 -10z"/>
<path d="M5540 3189 c-14 -6 -52 -16 -84 -23 -68 -13 -88 -36 -32 -36 20 0 36
-4 36 -10 0 -20 59 -11 74 12 25 35 65 47 103 31 40 -16 54 -16 90 -1 26 11
24 12 -47 24 -42 6 -76 8 -78 3 -2 -5 -8 -9 -13 -9 -6 0 -7 5 -4 10 8 12 -12
12 -45 -1z"/>
<path d="M7717 3144 c-16 -9 -27 -18 -24 -20 7 -8 57 15 57 26 0 12 1 13 -33
-6z"/>
<path d="M4890 3105 c0 -20 7 -26 43 -36 23 -7 53 -24 67 -38 22 -24 38 -28
139 -39 133 -15 155 -8 120 36 l-20 27 20 16 c19 16 12 17 -134 24 -84 4 -158
4 -163 1 -5 -3 -17 3 -27 14 -25 27 -45 25 -45 -5z"/>
<path d="M7075 3110 c3 -5 8 -10 11 -10 2 0 4 5 4 10 0 6 -5 10 -11 10 -5 0
-7 -4 -4 -10z"/>
<path d="M7633 3113 c-21 -8 -15 -22 7 -16 11 3 20 9 20 14 0 10 -8 10 -27 2z"/>
<path d="M6587 3086 c-4 -10 -1 -13 9 -9 15 6 19 23 5 23 -5 0 -11 -7 -14 -14z"/>
<path d="M7736 3015 c-16 -8 -34 -14 -40 -13 -33 5 -102 -60 -83 -78 3 -4 12
5 18 20 14 31 55 60 64 46 4 -6 -10 -26 -30 -46 -23 -22 -34 -41 -31 -50 3 -9
6 -18 6 -20 0 -2 4 -4 10 -4 5 0 7 7 4 15 -4 8 7 27 25 46 17 17 31 34 31 39
0 4 16 15 35 24 20 10 33 21 30 27 -8 11 -5 12 -39 -6z"/>
<path d="M7601 2884 c0 -11 3 -14 6 -6 3 7 2 16 -1 19 -3 4 -6 -2 -5 -13z"/>
<path d="M6575 2859 c-11 -17 1 -21 15 -4 8 9 8 15 2 15 -6 0 -14 -5 -17 -11z"/>
<path d="M4985 2616 c-16 -30 -27 -58 -23 -61 3 -3 62 -22 129 -41 68 -19 133
-37 144 -40 13 -4 4 11 -27 43 -27 27 -48 58 -48 68 0 31 -11 41 -70 60 -30
10 -60 20 -65 22 -6 2 -24 -21 -40 -51z"/>
<path d="M5235 2601 c-3 -5 -1 -12 4 -15 5 -3 11 1 15 9 6 16 -9 21 -19 6z"/>
<path d="M8469 1750 c-23 -13 -158 -51 -204 -57 -22 -2 -44 -8 -50 -13 -5 -4
-21 -11 -35 -15 -41 -11 -108 -45 -120 -61 -7 -7 -16 -14 -20 -14 -5 0 -34
-26 -67 -58 -66 -66 -59 -63 -303 -112 -63 -13 -376 -29 -682 -35 -142 -3
-264 -8 -272 -11 -21 -8 -227 13 -344 36 -100 19 -155 25 -122 13 8 -3 36 -21
61 -39 26 -19 50 -34 54 -34 4 0 58 -29 120 -64 63 -35 124 -67 137 -71 13 -4
34 -18 48 -30 24 -22 161 -75 194 -75 9 0 16 -4 16 -8 0 -5 24 -14 53 -21 28
-7 63 -20 77 -29 14 -9 33 -15 42 -14 10 2 33 -4 53 -12 19 -9 50 -23 69 -31
19 -8 45 -15 59 -15 14 0 32 -6 39 -13 7 -8 25 -16 38 -19 14 -4 61 -20 105
-38 44 -17 89 -34 100 -37 11 -3 27 -12 36 -20 9 -7 44 -24 79 -38 35 -14 73
-34 85 -45 11 -10 44 -24 72 -30 29 -6 72 -25 95 -41 24 -16 52 -29 63 -29 12
0 38 -9 60 -20 22 -11 47 -20 57 -20 10 0 18 -6 18 -13 0 -8 17 -19 39 -25 21
-7 44 -19 51 -27 7 -8 25 -15 41 -15 16 0 29 -4 29 -9 0 -5 15 -14 33 -20 69
-24 127 -57 127 -72 0 -16 80 -109 93 -109 4 0 7 320 7 710 0 391 -3 710 -7
710 -5 0 -15 -5 -24 -10z"/>
</g>
</svg>
